HIERARCHY
ROOT Hips
{
	OFFSET 0.000000 0.000000 0.000000
	CHANNELS 6 Xposition Yposition Zposition Zrotation Yrotation Xrotation 
	JOINT LHipJoint
	{
		OFFSET 0.000000 0.000000 0.000000
		CHANNELS 3 Zrotation Yrotation Xrotation
		JOINT LeftUpLeg
		{
			OFFSET 1.363060 -1.794630 0.839290
			CHANNELS 3 Zrotation Yrotation Xrotation
			JOINT LeftLeg
			{
				OFFSET 2.448110 -6.726130 0.000000
				CHANNELS 3 Zrotation Yrotation Xrotation
				JOINT LeftFoot
				{
					OFFSET 2.562200 -7.039590 0.000000
					CHANNELS 3 Zrotation Yrotation Xrotation
					JOINT LeftToeBase
					{
						OFFSET 0.157640 -0.433110 2.322550
						CHANNELS 3 Zrotation Yrotation Xrotation
						End Site
						{
							OFFSET 0.000000 0.000000 0.000000
						}
					}
				}
			}
		}
	}
	JOINT RHipJoint
	{
		OFFSET 0.000000 0.000000 0.000000
		CHANNELS 3 Zrotation Yrotation Xrotation
		JOINT RightUpLeg
		{
			OFFSET -1.305520 -1.794630 0.839290
			CHANNELS 3 Zrotation Yrotation Xrotation
			JOINT RightLeg
			{
				OFFSET -2.542530 -6.985550 0.000000
				CHANNELS 3 Zrotation Yrotation Xrotation
				JOINT RightFoot
				{
					OFFSET -2.568260 -7.056230 0.000000
					CHANNELS 3 Zrotation Yrotation Xrotation
					JOINT RightToeBase
					{
						OFFSET -0.164730 -0.452590 2.363150
						CHANNELS 3 Zrotation Yrotation Xrotation
						End Site
						{
							OFFSET 0.000000 0.000000 0.000000
						}
					}
				}
			}
		}
	}
}
MOTION
Frames: 16
Frame Time: 0.008333
-18.450943 16.096844 0.257046 90.719483 87.487051 128.143796 -6.891374 0.948786 3.376002 -15.249096 -12.542654 -69.354763 -2.488469 2.169302 38.689856 1.263974 3.619664 -8.372957 0.331400 0.000001 -21.951300 12.529872 -2.968310 -1.580793 4.599349 -5.642986 -7.212797 0.560878 -1.246193 18.146083 -0.157967 9.151713 29.296244 5.473900 -0.000000 -83.099100
-18.264777 16.072465 0.262066 80.744140 87.653839 117.811327 -6.721706 0.878713 2.915440 -15.781275 -11.721900 -68.995839 -2.360635 2.347387 40.935399 1.370640 3.945089 -9.378949 0.209000 0.000000 -20.632600 12.909834 -2.886073 -1.651963 3.918411 -6.038993 -7.730689 0.432764 -1.381775 20.435177 -0.256753 10.179424 30.246305 6.277499 -0.000000 -80.574800
-18.081802 16.060407 0.265840 71.253092 87.629006 107.962760 -6.571636 0.782202 2.469656 -16.369856 -10.955667 -68.377320 -2.273539 2.457540 42.752005 1.495417 4.313339 -10.558002 0.054101 -0.000000 -19.877701 13.254625 -2.790257 -1.739180 3.172403 -6.483584 -8.407324 0.322168 -1.523870 22.881195 -0.382432 10.856641 31.161151 6.896500 -0.000000 -77.705700
-17.901538 16.060345 0.267323 62.986452 87.451304 99.348898 -6.452443 0.681716 2.055896 -16.975709 -10.245505 -67.535639 -2.227138 2.509130 44.116257 1.632941 4.701926 -11.850077 -0.132000 0.000000 -19.644700 13.544102 -2.674270 -1.838299 2.395283 -6.946644 -9.235122 0.229146 -1.670630 25.449428 -0.528961 11.058231 31.996809 7.228900 0.000000 -74.675500
-17.723454 16.071549 0.265506 56.134641 87.173482 92.166312 -6.364513 0.593083 1.686570 -17.555909 -9.589031 -66.509219 -2.217200 2.510445 45.030388 1.776564 5.089203 -13.182829 -0.342900 0.000000 -19.851200 13.773842 -2.536616 -1.941964 1.632783 -7.397317 -10.199721 0.150509 -1.821037 28.097905 -0.692524 10.681353 32.703483 7.182799 -0.000000 -71.705900
-17.546685 16.093110 0.259476 50.512573 86.847274 86.238274 -6.305202 0.519471 1.365417 -18.070382 -8.984390 -65.333441 -2.236177 2.467685 45.514549 1.919390 5.460114 -14.478584 -0.567200 -0.000000 -20.387400 13.945720 -2.380061 -2.045550 0.932772 -7.807147 -11.285324 0.082980 -1.975625 30.782699 -0.871342 9.666357 33.219973 6.695700 0.000000 -69.001500
-17.370578 16.123912 0.248746 45.825534 86.511630 81.273034 -6.274979 0.458184 1.096107 -18.489800 -8.431332 -64.039592 -2.275164 2.386117 45.600712 2.054819 5.805928 -15.663680 -0.791000 0.000000 -21.123700 14.060894 -2.212764 -2.142237 0.334577 -8.153561 -12.474902 0.023462 -2.135043 33.461682 -1.064430 8.011425 33.473904 5.751400 -0.000000 -66.691499
-17.194666 16.162892 0.232973 41.790954 86.195338 76.992328 -6.274940 0.403244 0.876921 -18.795719 -7.928832 -62.655696 -2.325297 2.270912 45.328775 2.177561 6.125874 -16.677253 -0.999900 -0.000000 -21.920600 14.120909 -2.042697 -2.229221 -0.133548 -8.420412 -13.753834 -0.030517 -2.300254 36.098094 -1.269892 5.785484 33.387361 4.395500 0.000001 -64.792300
-17.018707 16.208970 0.212222 38.186385 85.915914 73.178457 -6.306487 0.349261 0.703935 -18.980940 -7.474848 -61.207224 -2.378826 2.127605 44.743908 2.284059 6.424727 -17.477445 -1.182100 0.000000 -22.646300 14.127708 -1.877480 -2.305224 -0.456066 -8.597369 -15.109551 -0.081178 -2.471841 38.659723 -1.483836 3.126702 32.891117 2.737700 -0.000001 -63.212899
-16.842335 16.261149 0.186790 34.856073 85.681842 69.676456 -6.370429 0.293321 0.572327 -19.049398 -7.064000 -59.715145 -2.429842 1.962084 43.893326 2.372521 6.709656 -18.043653 -1.329500 -0.000000 -23.196500 14.084350 -1.724133 -2.368848 -0.629450 -8.679507 -16.530008 -0.130615 -2.649451 41.118248 -1.699993 0.227826 31.943313 0.939800 -0.000000 -61.801400
-16.665478 16.318603 0.157187 31.686008 85.492698 66.375772 -6.466995 0.233779 0.474171 -19.012840 -6.688468 -58.197873 -2.474867 1.780539 42.821730 2.442802 6.987722 -18.376197 -1.438599 0.000000 -23.513900 13.993871 -1.586508 -2.421053 -0.660599 -8.664819 -18.005292 -0.180340 -2.831560 43.447305 -1.909964 -2.692346 30.543797 -0.814400 0.000000 -60.381900
-16.488276 16.380579 0.123977 28.595250 85.347014 63.191911 -6.595021 0.171051 0.403087 -18.886237 -6.336654 -56.668496 -2.512024 1.588305 41.572246 2.495855 7.262538 -18.493656 -1.509300 0.000000 -23.589201 13.861177 -1.468838 -2.459925 -0.560713 -8.554563 -19.522740 -0.231057 -3.014670 45.621767 -2.104429 -5.427369 28.740475 -2.357901 -0.000000 -58.808300
-16.310907 16.446450 0.087872 25.528872 85.240519 60.061581 -6.751882 0.107060 0.353418 -18.687590 -5.994348 -55.134110 -2.541257 1.389867 40.183848 2.532989 7.532073 -18.427959 -1.544700 -0.000000 -23.458799 13.692408 -1.373896 -2.481738 -0.346073 -8.351927 -21.066726 -0.282439 -3.193437 47.617743 -2.274727 -7.816642 26.626709 -3.575101 -0.000000 -57.055400
-16.133308 16.515715 0.049452 22.435517 85.163995 56.926658 -6.936046 0.043560 0.318770 -18.433366 -5.646750 -53.598107 -2.564036 1.189113 38.686114 2.555511 7.790572 -18.216748 -1.549300 -0.000000 -23.195800 13.491415 -1.301215 -2.485351 -0.035626 -8.063748 -22.621378 -0.332836 -3.361898 49.414645 -2.412765 -9.756508 24.315678 -4.413700 -0.000000 -55.055000
-15.955671 16.587864 0.009348 19.279536 85.106878 53.741761 -7.144866 -0.017268 0.292315 -18.139095 -5.278980 -52.059266 -2.582475 0.989357 37.104500 2.563967 8.027461 -17.897932 -1.528100 -0.000000 -22.890100 13.262626 -1.247620 -2.470702 0.350174 -7.698748 -24.166830 -0.379919 -3.513795 50.994128 -2.513534 -11.209060 21.937890 -4.886199 0.000000 -52.929100
-15.778292 16.662453 -0.031882 16.032415 85.056255 50.467721 -7.375760 -0.072956 0.267965 -17.816456 -4.878151 -50.512460 -2.598690 0.793316 35.458219 2.558173 8.230296 -17.503554 -1.485900 0.000001 -22.634500 13.010030 -1.208167 -2.439785 0.791763 -7.269913 -25.681987 -0.421137 -3.643815 52.342164 -2.574341 -12.184485 19.611267 -5.048400 -0.000000 -50.780200
